<svg viewBox="0 150 976 650" preserveAspectRatio="xMidYMid slice" fill="none" xmlns="http://www.w3.org/2000/svg">
<ellipse cx="276.5" cy="232.5" rx="276.5" ry="232.5" transform="matrix(-1 0 0 1 596 250)" fill="#64748B"/>
<path d="M80.9185 752.538C79.1526 759.781 86.454 765.908 93.2803 762.911L270.017 685.32C276.126 682.638 277.295 674.474 272.184 670.185L141.17 560.251C136.059 555.962 128.221 558.531 126.641 565.013L80.9185 752.538Z" fill="#64748B"/>
<ellipse cx="261" cy="219" rx="261" ry="219" transform="matrix(-1 0 0 1 580 263)" fill="white"/>
<path d="M98.1296 734.741C96.7561 740.374 102.435 745.139 107.744 742.808L254.495 678.381C259.247 676.295 260.156 669.945 256.181 666.61L147.395 575.327C143.42 571.991 137.324 573.99 136.095 579.031L98.1296 734.741Z" fill="white"/>
<ellipse cx="244.5" cy="205.5" rx="244.5" ry="205.5" transform="matrix(-1 0 0 1 564 276.191)" fill="#21918C"/>
<path d="M118.67 711.443C117.296 717.076 122.975 721.841 128.284 719.511L238.913 670.942C243.664 668.856 244.574 662.506 240.598 659.17L158.59 590.357C154.615 587.021 148.519 589.02 147.29 594.061L118.67 711.443Z" fill="#21918C"/>
<ellipse cx="655.5" cy="482.5" rx="276.5" ry="232.5" fill="#64748B"/>
<path d="M894.081 752.538C895.847 759.781 888.546 765.908 881.72 762.911L704.983 685.32C698.874 682.638 697.705 674.474 702.816 670.185L833.83 560.251C838.941 555.962 846.779 558.531 848.359 565.013L894.081 752.538Z" fill="#64748B"/>
<ellipse cx="656" cy="482" rx="261" ry="219" fill="white"/>
<path d="M876.87 734.741C878.244 740.374 872.565 745.139 867.256 742.808L720.505 678.381C715.753 676.295 714.844 669.945 718.819 666.61L827.605 575.327C831.58 571.991 837.676 573.99 838.905 579.031L876.87 734.741Z" fill="white"/>
<ellipse cx="655.5" cy="481.691" rx="244.5" ry="205.5" fill="#21918C"/>
<path d="M856.33 711.443C857.704 717.076 852.025 721.841 846.716 719.511L736.087 670.942C731.336 668.856 730.426 662.506 734.402 659.17L816.41 590.357C820.385 587.021 826.481 589.02 827.71 594.061L856.33 711.443Z" fill="#21918C"/>
<ellipse cx="488.5" cy="481.5" rx="153.5" ry="176.5" fill="white"/>
<circle cx="428" cy="422" r="30" fill="#64748B"/>
<circle cx="544.5" cy="482.5" r="27.5" fill="#64748B"/>
<circle cx="438.5" cy="556.5" r="27.5" fill="#64748B"/>
<circle cx="612" cy="377" r="25" fill="white"/>
<circle cx="612" cy="377" r="25" fill="white"/>
<circle cx="638" cy="488" r="25" fill="white"/>
<circle cx="364" cy="373" r="25" fill="white"/>
<circle cx="344" cy="498" r="25" fill="white"/>
<circle cx="639.5" cy="487.5" r="17.5" fill="#64748B"/>
<circle cx="363.5" cy="372.5" r="17.5" fill="#64748B"/>
<circle cx="343.5" cy="497.5" r="17.5" fill="#64748B"/>
<circle cx="549.5" cy="576.5" r="17.5" fill="#64748B"/>
<circle cx="532.5" cy="382.5" r="22.5" fill="#64748B"/>
<circle cx="611.5" cy="376.5" r="17.5" fill="#64748B"/>
<path d="M551.918 580.001C527.096 577.028 443.436 577.581 442.278 545.214" stroke="#64748B" stroke-width="10"/>
<path d="M641.833 495.079C622.446 515.307 565.662 589.726 538.682 571.629" stroke="#64748B" stroke-width="10"/>
<path d="M348.701 493.017C367.284 476.294 421.958 412.969 447.08 433.412" stroke="#64748B" stroke-width="10"/>
<path d="M483.788 663.929C469.934 643.119 415.199 579.847 439.066 557.952" stroke="#64748B" stroke-width="10"/>
<path d="M532.507 376.083C536.591 400.747 560.509 480.917 529.755 491.077" stroke="#64748B" stroke-width="10"/>
<path d="M549.653 466.365C551.507 491.296 568.133 573.289 536.592 580.648" stroke="#64748B" stroke-width="10"/>
<path d="M538.493 386.719C529.318 366.273 508.436 294.092 477.406 303.104" stroke="#64748B" stroke-width="10"/>
<path d="M485.155 298.25C470.344 321.515 412.314 393.119 436.346 414.957" stroke="#64748B" stroke-width="10"/>
<path d="M363.817 369.947C381.599 382.851 434.868 433.639 456 412" stroke="#64748B" stroke-width="10"/>
<path d="M414.621 439.94C418.406 465.5 420.584 551.9 452.996 552.325" stroke="#64748B" stroke-width="10"/>
<path d="M488.33 662.057C505.254 643.657 569.172 589.678 549.005 564.334" stroke="#64748B" stroke-width="10"/>
<path d="M448.624 562.418C425.378 553.218 344.338 532.438 351.465 500.844" stroke="#64748B" stroke-width="10"/>
<path d="M440.664 423.754C475.958 408.213 588.901 347.007 608.855 373.186" stroke="#64748B" stroke-width="10"/>
<path d="M434.133 429.247C478.339 446.274 619.922 516.247 644.546 478.675" stroke="#64748B" stroke-width="10"/>
<path d="M531.619 497.612C510.437 510.891 445.69 563.872 424.457 539.415" stroke="#64748B" stroke-width="10"/>
</svg>