<svg width="112" height="100" viewBox="0 0 112 100" fill="none" xmlns="http://www.w3.org/2000/svg">
<mask id="mask0" style="mask-type:alpha" maskUnits="userSpaceOnUse" x="0" y="0" width="112" height="100">
<path d="M80 50C80 63.6855 77.2243 76.026 72.7832 84.9081C68.3123 93.85 62.3207 99 56 99C49.6793 99 43.6877 93.85 39.2168 84.9081C34.7757 76.026 32 63.6855 32 50C32 36.3145 34.7757 23.974 39.2168 15.0919C43.6877 6.14996 49.6793 1 56 1C62.3207 1 68.3123 6.14996 72.7832 15.0919C77.2243 23.974 80 36.3145 80 50Z" stroke="black" stroke-width="2"/>
<path d="M43.8013 28.866C55.6533 22.0233 67.7283 18.2568 77.641 17.6619C87.6204 17.0629 95.0761 19.6767 98.2365 25.1506C101.397 30.6245 99.9327 38.3884 94.4242 46.7313C88.9526 55.0184 79.6533 63.5925 67.8013 70.4352C55.9492 77.278 43.8742 81.0444 33.9616 81.6394C23.9822 82.2384 16.5264 79.6245 13.366 74.1506C10.2057 68.6767 11.6699 60.9129 17.1783 52.57C22.6499 44.2829 31.9492 35.7088 43.8013 28.866Z" stroke="black" stroke-width="2"/>
<path d="M43.8013 70.4352C31.9492 63.5925 22.6499 55.0184 17.1783 46.7313C11.6699 38.3884 10.2057 30.6245 13.366 25.1506C16.5264 19.6767 23.9822 17.0629 33.9616 17.6619C43.8742 18.2568 55.9492 22.0233 67.8013 28.866C79.6533 35.7088 88.9526 44.2829 94.4242 52.57C99.9327 60.9129 101.397 68.6767 98.2365 74.1506C95.0761 79.6245 87.6204 82.2384 77.641 81.6394C67.7283 81.0444 55.6533 77.278 43.8013 70.4352Z" stroke="black" stroke-width="2"/>
<path d="M39.104 55C38.8053 55 38.576 54.872 38.416 54.616C38.256 54.36 38.24 54.088 38.368 53.8L42.864 43.064C43.024 42.6907 43.2853 42.504 43.648 42.504C44.032 42.504 44.2933 42.6907 44.432 43.064L48.944 53.832C49.0613 54.1307 49.04 54.4027 48.88 54.648C48.7307 54.8827 48.5013 55 48.192 55C48.032 55 47.8773 54.9573 47.728 54.872C47.5893 54.776 47.488 54.648 47.424 54.488L46.528 52.248H40.784L39.872 54.488C39.7973 54.6587 39.6853 54.7867 39.536 54.872C39.3973 54.9573 39.2533 55 39.104 55ZM41.344 50.872H45.968L43.68 45.176L41.344 50.872ZM51.682 55C51.4473 55 51.25 54.92 51.09 54.76C50.93 54.6 50.85 54.4027 50.85 54.168V43.336C50.85 43.0907 50.93 42.8933 51.09 42.744C51.25 42.584 51.4473 42.504 51.682 42.504H58.914C59.1593 42.504 59.3567 42.5787 59.506 42.728C59.6553 42.8667 59.73 43.0533 59.73 43.288C59.73 43.512 59.6553 43.6933 59.506 43.832C59.3567 43.9707 59.1593 44.04 58.914 44.04H52.514V47.928H57.106C57.3513 47.928 57.5487 48.0027 57.698 48.152C57.8473 48.2907 57.922 48.472 57.922 48.696C57.922 48.92 57.8473 49.1067 57.698 49.256C57.5487 49.3947 57.3513 49.464 57.106 49.464H52.514V53.464H58.914C59.1593 53.464 59.3567 53.5333 59.506 53.672C59.6553 53.8107 59.73 53.992 59.73 54.216C59.73 54.4507 59.6553 54.6427 59.506 54.792C59.3567 54.9307 59.1593 55 58.914 55H51.682ZM62.8851 55C62.6505 55 62.4531 54.92 62.2931 54.76C62.1331 54.6 62.0531 54.4027 62.0531 54.168V43.336C62.0531 43.0907 62.1331 42.8933 62.2931 42.744C62.4531 42.584 62.6505 42.504 62.8851 42.504H65.7811C66.6985 42.504 67.5305 42.6587 68.2771 42.968C69.0345 43.2667 69.6905 43.6987 70.2451 44.264C70.7998 44.8187 71.2265 45.4747 71.5251 46.232C71.8238 46.9893 71.9731 47.8267 71.9731 48.744C71.9731 49.6613 71.8238 50.504 71.5251 51.272C71.2265 52.0293 70.7998 52.6907 70.2451 53.256C69.6905 53.8107 69.0345 54.2427 68.2771 54.552C67.5305 54.8507 66.6985 55 65.7811 55H62.8851ZM63.7171 53.528H65.7811C66.6771 53.528 67.4665 53.3253 68.1491 52.92C68.8425 52.504 69.3865 51.9387 69.7811 51.224C70.1758 50.4987 70.3731 49.672 70.3731 48.744C70.3731 47.8053 70.1758 46.9787 69.7811 46.264C69.3865 45.5493 68.8425 44.9893 68.1491 44.584C67.4665 44.1787 66.6771 43.976 65.7811 43.976H63.7171V53.528Z" fill="black"/>
<circle cx="56" cy="23" r="4" fill="white" stroke="black" stroke-width="2"/>
<circle cx="56" cy="77" r="4" fill="white" stroke="black" stroke-width="2"/>
<circle cx="33" cy="37" r="4" fill="white" stroke="black" stroke-width="2"/>
<circle cx="33" cy="64" r="4" fill="white" stroke="black" stroke-width="2"/>
<circle cx="79" cy="64" r="4" fill="white" stroke="black" stroke-width="2"/>
<circle cx="79" cy="36" r="4" fill="white" stroke="black" stroke-width="2"/>
</mask>
<g mask="url(#mask0)">
<rect x="6" width="100" height="100" fill="url(#paint0_linear)"/>
</g>
<defs>
<linearGradient id="paint0_linear" x1="34" y1="14.5" x2="77.5" y2="89" gradientUnits="userSpaceOnUse">
<stop stop-color="#58508D"/>
<stop offset="0.482954" stop-color="#BC5090"/>
<stop offset="1" stop-color="#FF6361"/>
</linearGradient>
</defs>
</svg>
